# OBJ created via Mesh Extractor by KAMGAM
mtllib Arit.mtl
o Mesh
v -0.245476 -0.016960 -0.004646
v -0.239739 -0.016471 -0.000319
v -0.249413 0.017990 -0.001654
v -0.243996 -0.016802 0.002541
v -0.250046 0.018194 0.002903
v -0.239739 -0.016471 -0.000319
v -0.231270 -0.007765 -0.000055
v -0.228584 0.031713 0.003542
v -0.205803 -0.031338 -0.000610
v -0.248962 -0.017030 0.018410
v -0.244072 -0.052672 0.018959
v -0.261986 -0.053555 0.026848
v -0.265297 -0.017800 0.026894
v -0.244072 -0.052672 -0.018959
v -0.236664 -0.052308 0.000000
v -0.239739 -0.016471 -0.000319
v -0.247307 -0.016912 -0.019039
v -0.265297 -0.017800 -0.026894
v -0.283241 -0.018684 -0.018991
v -0.279945 -0.054443 -0.019007
v -0.261986 -0.053555 -0.026848
v -0.283241 -0.018684 0.018991
v -0.279945 -0.054443 0.019007
v -0.287399 -0.054811 0.000000
v -0.290657 -0.019050 0.000000
v -0.244072 -0.052672 0.018959
v -0.248962 -0.017030 0.018410
v -0.239739 -0.016471 -0.000319
v -0.236664 -0.052308 0.000000
v -0.247307 -0.016912 -0.019039
v -0.265297 -0.017800 -0.026894
v -0.261986 -0.053555 -0.026848
v -0.244072 -0.052672 -0.018959
v -0.283241 -0.018684 -0.018991
v -0.290657 -0.019050 0.000000
v -0.287399 -0.054811 0.000000
v -0.279945 -0.054443 -0.019007
v -0.265297 -0.017800 0.026894
v -0.261986 -0.053555 0.026848
v -0.279945 -0.054443 0.019007
v -0.283241 -0.018684 0.018991
v -0.236549 -0.052483 0.000000
v -0.240669 -0.052637 -0.005896
v -0.237228 -0.089982 -0.006598
v -0.234734 -0.095647 -0.000124
v -0.236549 -0.052483 0.000000
v -0.234734 -0.095647 -0.000124
v -0.237198 -0.088979 0.006401
v -0.241127 -0.052633 0.007109
v -0.231270 -0.007765 -0.000055
v -0.233856 0.027919 -0.001711
v -0.249413 0.017990 -0.001654
v -0.239739 -0.016471 -0.000319
v -0.231270 -0.007765 -0.000055
v -0.239739 -0.016471 -0.000319
v -0.250046 0.018194 0.002903
v -0.228584 0.031713 0.003542
v -0.077560 0.072560 0.004181
v -0.205803 -0.031338 -0.000610
v 0.095680 0.052840 -0.000490
v 0.077393 0.095648 0.003422
v 0.185486 0.075943 0.002735
v 0.264572 0.048133 0.001528
v 0.290657 0.030181 0.000542
v -0.201248 0.040553 -0.005001
v -0.233856 0.027919 -0.001711
v -0.231270 -0.007765 -0.000055
v -0.205803 -0.031338 -0.000610
v -0.201248 0.040553 -0.005001
v -0.205803 -0.031338 -0.000610
v -0.077232 0.072301 -0.004541
v 0.095680 0.052840 -0.000490
v 0.078392 0.095627 -0.003517
v 0.186668 0.075809 -0.002535
v 0.265022 0.048059 -0.000834
v 0.290657 0.030181 0.000542
vt 0.345703 0.051328
vt 0.345703 0.051328
vt 0.345703 0.051328
vt 0.345703 0.051328
vt 0.345703 0.051328
vt 0.345703 0.051328
vt 0.345703 0.051328
vt 0.345703 0.051328
vt 0.345703 0.051328
vt 0.345703 0.051328
vt 0.345703 0.051328
vt 0.345703 0.051328
vt 0.345703 0.051328
vt 0.345703 0.051328
vt 0.345703 0.051328
vt 0.345703 0.051328
vt 0.345703 0.051328
vt 0.345703 0.051328
vt 0.345703 0.051328
vt 0.345703 0.051328
vt 0.345703 0.051328
vt 0.345703 0.051328
vt 0.345703 0.051328
vt 0.345703 0.051328
vt 0.345703 0.051328
vt 0.345703 0.051328
vt 0.345703 0.051328
vt 0.345703 0.051328
vt 0.345703 0.051328
vt 0.345703 0.051328
vt 0.345703 0.051328
vt 0.345703 0.051328
vt 0.345703 0.051328
vt 0.345703 0.051328
vt 0.345703 0.051328
vt 0.345703 0.051328
vt 0.345703 0.051328
vt 0.345703 0.051328
vt 0.345703 0.051328
vt 0.345703 0.051328
vt 0.345703 0.051328
vt 0.345703 0.051328
vt 0.345703 0.051328
vt 0.345703 0.051328
vt 0.345703 0.051328
vt 0.345703 0.051328
vt 0.345703 0.051328
vt 0.345703 0.051328
vt 0.345703 0.051328
vt 0.345703 0.051328
vt 0.345703 0.051328
vt 0.345703 0.051328
vt 0.345703 0.051328
vt 0.345703 0.051328
vt 0.345703 0.051328
vt 0.345703 0.051328
vt 0.345703 0.051328
vt 0.345703 0.051328
vt 0.345703 0.051328
vt 0.345703 0.051328
vt 0.345703 0.051328
vt 0.345703 0.051328
vt 0.345703 0.051328
vt 0.345703 0.051328
vt 0.345703 0.051328
vt 0.345703 0.051328
vt 0.345703 0.051328
vt 0.345703 0.051328
vt 0.345703 0.051328
vt 0.345703 0.051328
vt 0.345703 0.051328
vt 0.345703 0.051328
vt 0.345703 0.051328
vt 0.345703 0.051328
vt 0.345703 0.051328
vt 0.345703 0.051328
vn 0.589361 0.134578 -0.796582
vn 0.589361 0.134578 -0.796582
vn 0.589361 0.134578 -0.796582
vn 0.550834 0.086650 0.830105
vn 0.550834 0.086650 0.830105
vn 0.550834 0.086650 0.830105
vn -0.058574 -0.086660 0.994515
vn -0.058574 -0.086660 0.994515
vn -0.058574 -0.086660 0.994515
vn 0.428416 0.055547 0.901873
vn 0.428416 0.055547 0.901873
vn 0.428416 0.055547 0.901873
vn 0.428416 0.055547 0.901873
vn 0.925768 0.079438 -0.369653
vn 0.925768 0.079438 -0.369653
vn 0.925768 0.079438 -0.369653
vn 0.925768 0.079438 -0.369653
vn -0.399743 -0.037300 -0.915868
vn -0.399743 -0.037300 -0.915868
vn -0.399743 -0.037300 -0.915868
vn -0.399743 -0.037300 -0.915868
vn -0.927321 -0.084939 0.364500
vn -0.927321 -0.084939 0.364500
vn -0.927321 -0.084939 0.364500
vn -0.927321 -0.084939 0.364500
vn 0.908766 0.106070 0.403600
vn 0.908766 0.106070 0.403600
vn 0.908766 0.106070 0.403600
vn 0.908766 0.106070 0.403600
vn 0.399861 0.034976 -0.915908
vn 0.399861 0.034976 -0.915908
vn 0.399861 0.034976 -0.915908
vn 0.399861 0.034976 -0.915908
vn -0.927321 -0.084939 -0.364500
vn -0.927321 -0.084939 -0.364500
vn -0.927321 -0.084939 -0.364500
vn -0.927321 -0.084939 -0.364500
vn -0.399743 -0.037300 0.915868
vn -0.399743 -0.037300 0.915868
vn -0.399743 -0.037300 0.915868
vn -0.399743 -0.037300 0.915868
vn 0.891204 0.062740 -0.449242
vn 0.891204 0.062740 -0.449242
vn 0.891204 0.062740 -0.449242
vn 0.891204 0.062740 -0.449242
vn 0.898305 0.060310 0.435213
vn 0.898305 0.060310 0.435213
vn 0.898305 0.060310 0.435213
vn 0.898305 0.060310 0.435213
vn 0.036617 -0.036177 -0.998674
vn 0.036617 -0.036177 -0.998674
vn 0.036617 -0.036177 -0.998674
vn 0.036617 -0.036177 -0.998674
vn 0.035295 -0.087951 0.995499
vn 0.035295 -0.087951 0.995499
vn 0.035295 -0.087951 0.995499
vn 0.012348 -0.061262 0.998045
vn 0.012348 -0.061262 0.998045
vn 0.012348 -0.061262 0.998045
vn -0.011120 -0.095677 0.995350
vn -0.011120 -0.095677 0.995350
vn -0.011120 -0.095677 0.995350
vn -0.014145 -0.080275 0.996672
vn -0.014145 -0.080275 0.996672
vn -0.076177 -0.054581 -0.995599
vn -0.076177 -0.054581 -0.995599
vn -0.076177 -0.054581 -0.995599
vn -0.076177 -0.054581 -0.995599
vn 0.019637 -0.062209 -0.997870
vn 0.019637 -0.062209 -0.997870
vn 0.019637 -0.062209 -0.997870
vn 0.016623 -0.060064 -0.998056
vn 0.016623 -0.060064 -0.998056
vn -0.004176 -0.072265 -0.997377
vn -0.004195 -0.076775 -0.997040
vn -0.004195 -0.076775 -0.997040

g Arit
usemtl Metal
s 1
f 59/59/59 58/58/58 57/57/57
f 58/58/58 59/59/59 60/60/60
f 61/61/61 58/58/58 60/60/60
f 62/62/62 61/61/61 60/60/60
f 62/62/62 60/60/60 63/63/63
f 60/60/60 64/64/64 63/63/63
f 76/76/76 72/72/72 75/75/75
f 72/72/72 74/74/74 75/75/75
f 73/73/73 74/74/74 72/72/72
f 71/71/71 73/73/73 72/72/72
f 70/70/70 71/71/71 72/72/72
f 71/71/71 70/70/70 69/69/69
f 67/67/67 66/66/66 65/65/65
f 52/52/52 51/51/51 50/50/50
f 53/53/53 52/52/52 50/50/50
f 3/3/3 2/2/2 1/1/1
f 68/68/68 67/67/67 65/65/65
f 9/9/9 8/8/8 7/7/7
f 57/57/57 56/56/56 54/54/54
f 56/56/56 55/55/55 54/54/54
f 6/6/6 5/5/5 4/4/4
f 48/48/48 47/47/47 46/46/46
f 49/49/49 48/48/48 46/46/46
f 45/45/45 44/44/44 42/42/42
f 44/44/44 43/43/43 42/42/42
f 16/16/16 15/15/15 14/14/14
f 17/17/17 16/16/16 14/14/14
f 33/33/33 32/32/32 30/30/30
f 32/32/32 31/31/31 30/30/30
f 29/29/29 28/28/28 26/26/26
f 28/28/28 27/27/27 26/26/26
f 12/12/12 11/11/11 10/10/10
f 13/13/13 12/12/12 10/10/10
f 40/40/40 39/39/39 38/38/38
f 41/41/41 40/40/40 38/38/38
f 24/24/24 23/23/23 22/22/22
f 25/25/25 24/24/24 22/22/22
f 36/36/36 35/35/35 34/34/34
f 37/37/37 36/36/36 34/34/34
f 21/21/21 20/20/20 18/18/18
f 20/20/20 19/19/19 18/18/18
